<?xml version="1.0" standalone="no"?>
<!DOCTYPE svg PUBLIC "-//W3C//DTD SVG 20010904//EN"
 "http://www.w3.org/TR/2001/REC-SVG-20010904/DTD/svg10.dtd">
<svg version="1.0" xmlns="http://www.w3.org/2000/svg"
 width="557.000000pt" height="557.000000pt" viewBox="0 0 557.000000 557.000000"
 preserveAspectRatio="xMidYMid meet">

<g transform="translate(0.000000,557.000000) scale(0.100000,-0.100000)"
fill="#000000" stroke="none">
<path d="M1785 4636 c-89 -41 -146 -127 -204 -308 -41 -129 -80 -347 -87 -483
-11 -203 42 -629 105 -855 16 -58 29 -105 28 -105 -1 0 -27 -8 -57 -18 -322
-107 -609 -397 -676 -685 -18 -76 -20 -205 -5 -272 60 -266 283 -525 565 -656
277 -128 526 -121 738 20 109 72 280 241 413 409 l31 39 128 -9 128 -8 18 -51
c9 -28 37 -89 61 -135 84 -164 279 -323 464 -381 55 -18 94 -22 180 -22 123 0
187 12 325 59 244 83 406 186 543 342 184 212 223 445 123 732 -55 157 -146
290 -303 442 -149 144 -282 223 -440 262 -77 19 -84 23 -78 41 47 160 85 391
85 517 0 60 2 109 4 109 3 0 35 -7 73 -16 37 -9 111 -17 163 -18 83 -1 101 2
145 24 66 33 88 74 82 151 -9 102 -87 214 -220 315 -122 92 -406 210 -568 235
-138 21 -226 -9 -293 -100 -74 -100 -97 -179 -126 -434 -11 -100 -27 -236 -35
-302 -8 -66 -15 -186 -15 -267 l0 -147 -69 24 c-191 67 -485 74 -672 15 l-59
-18 0 24 c0 13 10 115 22 227 30 282 30 552 -1 697 -70 335 -193 555 -339 610
-69 26 -116 25 -177 -4z m154 -110 c41 -22 96 -88 131 -157 45 -89 106 -279
124 -388 21 -122 21 -342 1 -586 -9 -104 -18 -233 -21 -286 l-6 -96 -54 -39
c-57 -41 -100 -91 -89 -102 6 -7 50 8 243 82 148 56 226 70 397 69 175 -1 226
-12 450 -98 79 -30 150 -55 159 -55 30 0 16 30 -35 79 l-52 49 6 199 c7 268
62 743 97 837 32 85 75 142 120 160 33 13 53 14 112 6 83 -12 246 -64 354
-114 193 -89 344 -233 344 -327 0 -50 -18 -59 -113 -59 -102 0 -245 38 -374
100 -121 57 -172 70 -192 46 -11 -13 -6 -23 34 -65 26 -27 76 -65 115 -86 l70
-36 0 -96 c0 -158 -48 -433 -110 -626 l-28 -88 41 6 c50 8 212 -24 295 -58 86
-34 167 -92 271 -192 190 -183 283 -353 312 -570 36 -277 -134 -524 -472 -684
-184 -88 -309 -121 -456 -121 -110 0 -184 21 -284 80 -156 92 -258 223 -321
408 -16 50 -37 93 -45 96 -9 4 -97 9 -197 13 l-181 6 -50 -59 c-49 -58 -64
-75 -163 -186 -199 -223 -355 -311 -546 -310 -207 1 -455 117 -616 289 -293
310 -292 636 4 942 115 118 213 181 391 250 44 17 97 44 117 61 l37 31 -14 37
c-72 184 -156 768 -140 961 26 304 110 585 198 664 36 31 90 36 136 13z"/>
<path d="M1522 2468 c-7 -7 -12 -42 -12 -95 l0 -83 -88 0 c-55 0 -92 -4 -100
-12 -13 -13 -16 -253 -3 -298 7 -24 10 -25 104 -28 l96 -3 3 -97 3 -97 149 -3
c101 -2 153 1 162 9 10 8 14 37 14 100 l0 88 87 3 87 3 8 33 c5 17 7 92 6 165
l-3 132 -92 3 -93 3 0 85 c0 59 -4 86 -12 89 -7 2 -78 6 -158 10 -110 4 -148
3 -158 -7z"/>
<path d="M3739 2447 c-43 -29 -59 -60 -59 -121 0 -43 4 -53 39 -87 34 -35 44
-39 87 -39 113 0 177 103 126 200 -36 67 -129 90 -193 47z"/>
<path d="M3503 2251 c-49 -23 -73 -63 -73 -121 0 -140 169 -188 247 -71 76
113 -49 250 -174 192z"/>
<path d="M3986 2231 c-40 -26 -55 -57 -56 -109 0 -78 51 -132 127 -132 50 0
82 18 111 60 19 29 23 44 19 84 -4 41 -11 55 -41 83 -30 28 -43 33 -83 33 -31
0 -59 -7 -77 -19z"/>
<path d="M3719 2001 c-35 -34 -39 -44 -39 -87 0 -86 55 -144 135 -144 133 0
185 171 76 249 -20 15 -44 21 -81 21 -47 0 -56 -4 -91 -39z"/>
</g>
</svg>
